# xmcd
#
# Track frame offsets:
#	150
#	7563
#	12412
#	14782
#	19868
#	20789
#	24263
#	27644
#	31357
#	33561
#	37481
#	40580
#	45400
#	48522
#	50295
#	52056
#	56761
#	59657
#	64623
#	68986
#	76873
#	81629
#	85259
#	93172
#	98396
#	104193
#	107069
#	110633
#	120406
#	126845
#
# Disc length: 1735 seconds
#
# Revision: 1
# Processed by: cddbd v1.5.2PL0 Copyright (c) Steve Scherf et al.
# Submitted via: audiograbber 1.83.01
#
DISCID=9906c51e
DTITLE=Ampere - The first five years
DYEAR=1900
DGENRE=
TTITLE0=Escapism
TTITLE1=Diffident dissonance
TTITLE2=Conquest success
TTITLE3=Abject failure
TTITLE4=Dead weight
TTITLE5=Secret hallways
TTITLE6=Sleppwalkers
TTITLE7=Away from the bright lights
TTITLE8=Your still life
TTITLE9=My favorite movie
TTITLE10=What it's like to fly
TTITLE11=A new dialect
TTITLE12=A letter to a friend
TTITLE13=Things I'd rather not have learned
TTITLE14=Things I'd rather not have learned
TTITLE15=Up the contrast
TTITLE16=My hands are shaking my mind  is made up
TTITLE17=A letter to a friend
TTITLE18=I don't need it anyways
TTITLE19=No miracle here
TTITLE20=Historical reenactments (1)
TTITLE21=Historical reenactments (2)
TTITLE22=Historical reenactments (3)
TTITLE23=Historical reenactments (4)
TTITLE24=Historical reenactments (5)
TTITLE25=Live (1)
TTITLE26=Live (2)
TTITLE27=Live (3)
TTITLE28=Live (4)
TTITLE29=Live (5)
EXTD=
EXTT0=
EXTT1=
EXTT2=
EXTT3=
EXTT4=
EXTT5=
EXTT6=
EXTT7=
EXTT8=
EXTT9=
EXTT10=
EXTT11=
EXTT12=
EXTT13=
EXTT14=
EXTT15=
EXTT16=
EXTT17=
EXTT18=
EXTT19=
EXTT20=
EXTT21=
EXTT22=
EXTT23=
EXTT24=
EXTT25=
EXTT26=
EXTT27=
EXTT28=
EXTT29=
PLAYORDER=
